<svg xmlns="http://www.w3.org/2000/svg" viewBox="0 0 512 512" width="682.667" height="682.667" xmlns:v="https://vecta.io/nano"><defs><clipPath id="asanga_logo_clip_path"><path d="M0 0h512v512H0z"/></clipPath></defs><g clip-path="url(#asanga_logo_clip_path)"><linearGradient id="B" x1="351.792" y1="151.036" x2="95.676" y2="354.259" gradientUnits="userSpaceOnUse"><stop offset="0%" stop-color="#00bdc4"/><stop offset="10%" stop-color="#13b5c2"/><stop offset="20%" stop-color="#27adc0"/><stop offset="30.000000000000004%" stop-color="#3aa4be"/><stop offset="40%" stop-color="#4e9cbc"/><stop offset="50%" stop-color="#6194ba"/><stop offset="60%" stop-color="#748cb7"/><stop offset="70%" stop-color="#8884b5"/><stop offset="80%" stop-color="#9b7bb3"/><stop offset="89.99999999999999%" stop-color="#af73b1"/><stop offset="99.99999999999999%" stop-color="#c26baf"/></linearGradient><path d="M0 254.018c0 122.6 99.395 222.007 222.007 222.007h0c122.61 0 222.004-99.397 222.004-222.007h0c0-122.6-99.395-222.005-222.004-222.005h0C99.395 32.013 0 131.408 0 254.018z" fill="url(#B)"/><linearGradient id="C" x1="461.302" y1="311.224" x2="233.037" y2="491.85" gradientUnits="userSpaceOnUse"><stop offset="0%" stop-color="#00bdc4"/><stop offset="10%" stop-color="#13b5c2"/><stop offset="20%" stop-color="#27adc0"/><stop offset="30.000000000000004%" stop-color="#3aa4be"/><stop offset="40%" stop-color="#4e9cbc"/><stop offset="50%" stop-color="#6194ba"/><stop offset="60%" stop-color="#748cb7"/><stop offset="70%" stop-color="#8884b5"/><stop offset="80%" stop-color="#9b7bb3"/><stop offset="89.99999999999999%" stop-color="#af73b1"/><stop offset="99.99999999999999%" stop-color="#c26baf"/></linearGradient><path d="M304.527 246.758c-12.216 20.737-19.826 44.717-21.183 70.73h0c-4.1 78.496 52.914 148.5 130.578 160.618h0c32.602 5.086 64.234-.366 91.61-13.716h0c9.33-4.552 8.336-18.22-1.492-21.566h0c-67.792-23.086-112.537-91.115-103.57-165.043h0a155.05 155.05 0 0 1 7.045-31.024h0-102.986z" fill="url(#C)"/><path d="M308.17 390.94H135.84c-35.684 0-64.61-28.927-64.61-64.613v-119.58c0-35.684 28.927-64.613 64.61-64.613h172.33c35.684 0 64.613 28.93 64.613 64.613v119.58c0 35.686-28.93 64.613-64.613 64.613z" fill="#fff"/><g fill="#c26baf"><path d="M161.176 270.53H148.3a17.58 17.58 0 0 1-17.578-17.577v-27.468a17.58 17.58 0 0 1 17.578-17.578h12.865c9.708 0 17.578 7.87 17.578 17.578v27.468a17.58 17.58 0 0 1-17.578 17.577zm134.524 0h-12.866a17.58 17.58 0 0 1-17.578-17.577v-27.468c0-9.708 7.87-17.578 17.578-17.578H295.7c9.708 0 17.578 7.87 17.578 17.578v27.468A17.58 17.58 0 0 1 295.7 270.53z"/></g><g fill="#fff"><path d="M192.562 91.898c0-16.26 13.182-29.443 29.445-29.443s29.443 13.182 29.443 29.443-13.182 29.444-29.443 29.444-29.445-13.184-29.445-29.444z"/><path d="M228.71 164.926h-13.4V91.9h13.4v73.027z"/></g></g></svg>