	<svg xmlns="http://www.w3.org/2000/svg" viewBox="0 0 700.605 159.505" width="934.14" height="212.673"  xmlns:v="https://vecta.io/nano"><defs><clipPath id="asanga_logo_text_purple_clip_path"><path d="M0 0h700.605v159.505H0z"/></clipPath></defs><g clip-path="url(#asanga_logo_text_purple_clip_path)" fill="#8151b0"><path d="M177.21 46.45c-7.55 0-25.12-.81-25.12-8.33 0-3.68 0-13.48 25.12-13.48h26.9c6.804 0 12.32-5.516 12.32-12.32S210.914 0 204.11 0h-26.9c-41.49 0-50.19 20.73-50.19 38.12 0 15 8.7 33 50.19 33 7.56 0 25.13.82 25.13 8.33 0 3.69 0 13.49-25.13 13.49h-35.93a12.32 12.32 0 1 0 0 24.57h36c41.49 0 50.2-20.73 50.2-38.13-.07-15-8.78-32.93-50.27-32.93zM413.58 1.1h-.25a50.38 50.38 0 0 0-35.635 14.767c-9.449 9.454-14.753 22.276-14.745 35.643v52.44a12.54 12.54 0 1 0 25.07 0v-52.6c0-13.63 10.83-24.9 24.14-25.12 9.2-.11 15.92 1.83 20 5.88s6.12 10.4 6.12 19.19v52.6a12.54 12.54 0 1 0 25.07 0V51.3c-.01-32.69-17.22-50.04-49.77-50.2zm114.19.01h-.25c-27.808 0-50.358 22.532-50.38 50.34V65.7c-.003 13.551 5.416 26.54 15.049 36.07a50.72 50.72 0 0 0 36.231 14.66h1.78c7.648-.373 13.662-6.673 13.68-14.33a11 11 0 0 0-12.05-10.9 47.26 47.26 0 0 1-4.61.21c-13.826-.077-24.995-11.304-25-25.13V51.3c0-13.63 10.84-24.9 24.15-25.12 9.25-.09 15.92 1.83 20 5.88s6.06 10.43 6.06 19.24v58c-.011 13.87-11.25 25.113-25.12 25.13H511.2a12.54 12.54 0 1 0 0 25.07h16.14c27.709-.033 50.162-22.491 50.19-50.2v-58c0-32.69-17.25-50.04-49.76-50.19zm156.51 17.74C673.36 8 659.81 2.51 643.94 2.51s-29.39 5.47-40.17 16.27-16.25 24.35-16.25 40.26 5.47 29.47 16.26 40.37 24.29 16.39 40.16 16.39a12.41 12.41 0 0 0 13.08-13.08c.174-3.477-1.13-6.866-3.59-9.33a12.93 12.93 0 0 0-9.49-3.53 29.25 29.25 0 0 1-21.6-9.06 30.07 30.07 0 0 1-8.88-21.77c.03-16.9 13.755-30.575 30.655-30.545S674.69 42.24 674.66 59.14v43.68c0 4 1.15 7.07 3.51 9.45s5.41 3.53 9.34 3.53a12.86 12.86 0 0 0 9.48-3.55 12.45 12.45 0 0 0 3.6-9.39v-43.6c0-15.97-5.5-29.56-16.31-40.41zM292.62 2.51c-15.87 0-29.39 5.47-40.17 16.27S236.2 43.13 236.2 59.04s5.47 29.49 16.26 40.38 24.29 16.39 40.16 16.39a12.42 12.42 0 0 0 13.08-13.08c.174-3.477-1.13-6.866-3.59-9.33a12.93 12.93 0 0 0-9.49-3.53 29.27 29.27 0 0 1-21.61-9.06 30.06 30.06 0 0 1-8.87-21.77c.03-16.9 13.755-30.575 30.655-30.545S323.37 42.25 323.34 59.15v43.68c0 4 1.14 7.07 3.51 9.45s5.41 3.53 9.34 3.53a12.86 12.86 0 0 0 9.48-3.55 12.45 12.45 0 0 0 3.6-9.39v-43.6c0-16-5.51-29.56-16.36-40.41S308.49 2.51 292.62 2.51zm-236.2 0c-15.87 0-29.38 5.47-40.16 16.27S0 43.13 0 59.04s5.47 29.47 16.28 40.37 24.29 16.39 40.16 16.39a12.42 12.42 0 0 0 13.09-13.08 12.33 12.33 0 0 0-3.6-9.33 12.93 12.93 0 0 0-9.49-3.53 29.27 29.27 0 0 1-21.6-9.06 30.07 30.07 0 0 1-8.88-21.77c.03-16.9 13.755-30.575 30.655-30.545S87.19 42.24 87.16 59.14v43.68c0 4 1.15 7.07 3.51 9.45a12.45 12.45 0 0 0 9.34 3.53 12.86 12.86 0 0 0 9.49-3.55c2.463-2.486 3.766-5.895 3.59-9.39v-43.6c0-16-5.5-29.56-16.36-40.41S72.28 2.51 56.42 2.51z"/></g></svg>